<?xml version="1.0" encoding="UTF-8" standalone="no"?><svg xmlns="http://www.w3.org/2000/svg" xmlns:xlink="http://www.w3.org/1999/xlink" contentScriptType="application/ecmascript" contentStyleType="text/css" height="1355px" preserveAspectRatio="none" style="width:1644px;height:1355px;" version="1.1" viewBox="0 0 1644 1355" width="1644px" zoomAndPan="magnify"><defs/><g><text fill="#000000" font-family="Arial" font-size="14" font-weight="bold" lengthAdjust="spacingAndGlyphs" textLength="395" x="636" y="18.9951">Galactic VPC — BGP control plane full architecture</text><!--MD5=[3b8c67fa06828bb75806d0a691e99553]
cluster tier0--><rect fill="#F3E6FF" height="489" rx="4" ry="4" style="stroke: #000000; stroke-width: 1.5;" width="266" x="335" y="855.2969"/><text fill="#000000" font-family="Arial" font-size="11" font-weight="bold" lengthAdjust="spacingAndGlyphs" textLength="124" x="406" y="873.5073">Tier 0 — Global RRs</text><!--MD5=[587f86c4604d878bc96123f88a6ff6a3]
cluster nyc_site--><rect fill="#F9F0FF" height="178" rx="4" ry="4" style="stroke: #000000; stroke-width: 1.5;" width="218" x="359" y="906.2969"/><text fill="#000000" font-family="Arial" font-size="11" font-weight="bold" lengthAdjust="spacingAndGlyphs" textLength="162" x="387" y="924.5073">us-east-2 · New York City</text><!--MD5=[198a2a8c5227bd8e4341f4ce7fdce96a]
cluster fra_site--><rect fill="#F9F0FF" height="178" rx="4" ry="4" style="stroke: #000000; stroke-width: 1.5;" width="218" x="359" y="1142.2969"/><text fill="#000000" font-family="Arial" font-size="11" font-weight="bold" lengthAdjust="spacingAndGlyphs" textLength="150" x="393" y="1160.5073">de-central-1 · Frankfurt</text><!--MD5=[f43fa848a4ec6727b399c17acabb5bec]
cluster tier1--><rect fill="#E6FFF9" height="204" rx="4" ry="4" style="stroke: #000000; stroke-width: 1.5;" width="1370" x="29" y="593.2969"/><text fill="#000000" font-family="Arial" font-size="11" font-weight="bold" lengthAdjust="spacingAndGlyphs" textLength="139" x="644.5" y="611.5073">Tier 1 — Regional RRs</text><!--MD5=[ac1c5639ca600fd7ce5eb22301f2f369]
cluster am_region--><rect fill="#F0FFF8" height="129" rx="4" ry="4" style="stroke: #000000; stroke-width: 1.5;" width="438" x="53" y="644.2969"/><text fill="#000000" font-family="Arial" font-size="11" font-weight="bold" lengthAdjust="spacingAndGlyphs" textLength="58" x="243" y="662.5073">Americas</text><!--MD5=[e1df622eb902d363f6f771eae4ef08d3]
cluster eu_region--><rect fill="#F0FFF8" height="129" rx="4" ry="4" style="stroke: #000000; stroke-width: 1.5;" width="419" x="515" y="644.2969"/><text fill="#000000" font-family="Arial" font-size="11" font-weight="bold" lengthAdjust="spacingAndGlyphs" textLength="35" x="707" y="662.5073">EMEA</text><!--MD5=[0d313ee39ea90e6a0976d09b6c362658]
cluster ap_region--><rect fill="#F0FFF8" height="129" rx="4" ry="4" style="stroke: #000000; stroke-width: 1.5;" width="417" x="958" y="644.2969"/><text fill="#000000" font-family="Arial" font-size="11" font-weight="bold" lengthAdjust="spacingAndGlyphs" textLength="75" x="1129" y="662.5073">Asia-Pacific</text><!--MD5=[5549602bfa7b4ab054b52f5e2326f551]
cluster tier2--><rect fill="#E8F4FF" height="483" rx="4" ry="4" style="stroke: #000000; stroke-width: 1.5;" width="1611" x="22" y="52.2969"/><text fill="#000000" font-family="Arial" font-size="11" font-weight="bold" lengthAdjust="spacingAndGlyphs" textLength="288" x="683.5" y="70.5073">Tier 2 — Worker nodes (representative PoPs)</text><!--MD5=[12ad2e17ff179a576a4cf288c3a74411]
cluster pop_am--><rect fill="#EEF6FF" height="408" rx="4" ry="4" style="stroke: #000000; stroke-width: 1.5;" width="505" x="46" y="103.2969"/><text fill="#000000" font-family="Arial" font-size="11" font-weight="bold" lengthAdjust="spacingAndGlyphs" textLength="125" x="236" y="121.5073">us-east-1 · Ashburn</text><!--MD5=[3a1fde0c11544c2ca5166ae4e9c8413b]
cluster k8s_am--><rect fill="#F5FAFF" height="333" rx="4" ry="4" style="stroke: #000000; stroke-width: 1.5;" width="457" x="70" y="154.2969"/><text fill="#000000" font-family="Arial" font-size="11" font-weight="bold" lengthAdjust="spacingAndGlyphs" textLength="108" x="244.5" y="172.5073">K8s worker node</text><!--MD5=[d45e5642ab48b78208be06a8aac5d6e7]
cluster pop_eu--><rect fill="#EEF6FF" height="408" rx="4" ry="4" style="stroke: #000000; stroke-width: 1.5;" width="505" x="575" y="103.2969"/><text fill="#000000" font-family="Arial" font-size="11" font-weight="bold" lengthAdjust="spacingAndGlyphs" textLength="129" x="763" y="121.5073">gb-south-1 · London</text><!--MD5=[c5d269c92279c9db7b19db5eefdfdd84]
cluster k8s_eu--><rect fill="#F5FAFF" height="333" rx="4" ry="4" style="stroke: #000000; stroke-width: 1.5;" width="457" x="599" y="154.2969"/><text fill="#000000" font-family="Arial" font-size="11" font-weight="bold" lengthAdjust="spacingAndGlyphs" textLength="108" x="773.5" y="172.5073">K8s worker node</text><!--MD5=[eb87e54585c40fdab3c97eb2d2b9d24d]
cluster pop_ap--><rect fill="#EEF6FF" height="408" rx="4" ry="4" style="stroke: #000000; stroke-width: 1.5;" width="505" x="1104" y="103.2969"/><text fill="#000000" font-family="Arial" font-size="11" font-weight="bold" lengthAdjust="spacingAndGlyphs" textLength="155" x="1279" y="121.5073">sg-central-1 · Singapore</text><!--MD5=[3648d201f8f3cf72bbd7457262a05fa8]
cluster k8s_ap--><rect fill="#F5FAFF" height="333" rx="4" ry="4" style="stroke: #000000; stroke-width: 1.5;" width="457" x="1128" y="154.2969"/><text fill="#000000" font-family="Arial" font-size="11" font-weight="bold" lengthAdjust="spacingAndGlyphs" textLength="108" x="1302.5" y="172.5073">K8s worker node</text><!--MD5=[515fe5248e6b6d597f9c0dfb0ce2912c]
entity grr1--><rect fill="#E1D5E7" height="119.2188" rx="4" ry="4" style="stroke: #000000; stroke-width: 1.5;" width="186" x="375" y="949.2969"/><text fill="#000000" font-family="Arial" font-size="11" font-weight="bold" lengthAdjust="spacingAndGlyphs" textLength="73" x="391" y="975.5073">Global RR 1</text><text fill="#000000" font-family="Arial" font-size="11" lengthAdjust="spacingAndGlyphs" textLength="20" x="391" y="1000.312">FRR</text><text fill="#000000" font-family="Arial" font-size="11" lengthAdjust="spacingAndGlyphs" textLength="81" x="391" y="1025.1167">iBGP cluster A</text><text fill="#000000" font-family="Arial" font-size="11" lengthAdjust="spacingAndGlyphs" textLength="154" x="391" y="1049.9214">reflects inter-region routes</text><!--MD5=[06d3cfc9d09864f86560680202681554]
entity grr2--><rect fill="#E1D5E7" height="119.2188" rx="4" ry="4" style="stroke: #000000; stroke-width: 1.5;" width="186" x="375" y="1185.2969"/><text fill="#000000" font-family="Arial" font-size="11" font-weight="bold" lengthAdjust="spacingAndGlyphs" textLength="73" x="391" y="1211.5073">Global RR 2</text><text fill="#000000" font-family="Arial" font-size="11" lengthAdjust="spacingAndGlyphs" textLength="20" x="391" y="1236.312">FRR</text><text fill="#000000" font-family="Arial" font-size="11" lengthAdjust="spacingAndGlyphs" textLength="82" x="391" y="1261.1167">iBGP cluster B</text><text fill="#000000" font-family="Arial" font-size="11" lengthAdjust="spacingAndGlyphs" textLength="154" x="391" y="1285.9214">reflects inter-region routes</text><!--MD5=[3fc571109481a6d456bfd9b159021663]
entity rrA1--><rect fill="#CCFFE6" height="69.6094" rx="4" ry="4" style="stroke: #000000; stroke-width: 1.5;" width="177" x="68.5" y="687.2969"/><text fill="#000000" font-family="Arial" font-size="11" font-weight="bold" lengthAdjust="spacingAndGlyphs" textLength="145" x="84.5" y="713.5073">Americas RR — primary</text><text fill="#000000" font-family="Arial" font-size="11" lengthAdjust="spacingAndGlyphs" textLength="133" x="84.5" y="738.312">FRR · Anchor: us-east-2</text><!--MD5=[c70dab2c21ce4c7d3a0c81661606fc1b]
entity rrA2--><rect fill="#CCFFE6" height="69.6094" rx="4" ry="4" style="stroke: #000000; stroke-width: 1.5;" width="195" x="280.5" y="687.2969"/><text fill="#000000" font-family="Arial" font-size="11" font-weight="bold" lengthAdjust="spacingAndGlyphs" textLength="163" x="296.5" y="713.5073">Americas RR — secondary</text><text fill="#000000" font-family="Arial" font-size="11" lengthAdjust="spacingAndGlyphs" textLength="128" x="296.5" y="738.312">FRR · active/active pair</text><!--MD5=[91310ba2dc79e1f936b8e1acd8ceac70]
entity rrE1--><rect fill="#CCFFE6" height="69.6094" rx="4" ry="4" style="stroke: #000000; stroke-width: 1.5;" width="179" x="531.5" y="687.2969"/><text fill="#000000" font-family="Arial" font-size="11" font-weight="bold" lengthAdjust="spacingAndGlyphs" textLength="122" x="547.5" y="713.5073">EMEA RR — primary</text><text fill="#000000" font-family="Arial" font-size="11" lengthAdjust="spacingAndGlyphs" textLength="147" x="547.5" y="738.312">FRR · Anchor: de-central-1</text><!--MD5=[a614d94aa1e21abff5b7553a7d32b6a2]
entity rrE2--><rect fill="#CCFFE6" height="69.6094" rx="4" ry="4" style="stroke: #000000; stroke-width: 1.5;" width="172" x="746" y="687.2969"/><text fill="#000000" font-family="Arial" font-size="11" font-weight="bold" lengthAdjust="spacingAndGlyphs" textLength="140" x="762" y="713.5073">EMEA RR — secondary</text><text fill="#000000" font-family="Arial" font-size="11" lengthAdjust="spacingAndGlyphs" textLength="128" x="762" y="738.312">FRR · active/active pair</text><!--MD5=[2822701accda65bfafe6017ceb75879a]
entity rrP1--><rect fill="#CCFFE6" height="69.6094" rx="4" ry="4" style="stroke: #000000; stroke-width: 1.5;" width="179" x="974.5" y="687.2969"/><text fill="#000000" font-family="Arial" font-size="11" font-weight="bold" lengthAdjust="spacingAndGlyphs" textLength="120" x="990.5" y="713.5073">APAC RR — primary</text><text fill="#000000" font-family="Arial" font-size="11" lengthAdjust="spacingAndGlyphs" textLength="147" x="990.5" y="738.312">FRR · Anchor: sg-central-1</text><!--MD5=[8581c5edb0b89e2558c6bd06cb48f728]
entity rrP2--><rect fill="#CCFFE6" height="69.6094" rx="4" ry="4" style="stroke: #000000; stroke-width: 1.5;" width="170" x="1189" y="687.2969"/><text fill="#000000" font-family="Arial" font-size="11" font-weight="bold" lengthAdjust="spacingAndGlyphs" textLength="138" x="1205" y="713.5073">APAC RR — secondary</text><text fill="#000000" font-family="Arial" font-size="11" lengthAdjust="spacingAndGlyphs" textLength="128" x="1205" y="738.312">FRR · active/active pair</text><!--MD5=[a60c06613626aa805f100af2304caddb]
entity gobgp_am--><rect fill="#DAE8FC" height="94.4141" rx="4" ry="4" style="stroke: #000000; stroke-width: 1.5;" width="189" x="86.5" y="377.2969"/><text fill="#000000" font-family="Arial" font-size="11" font-weight="bold" lengthAdjust="spacingAndGlyphs" textLength="43" x="102.5" y="403.5073">GoBGP</text><text fill="#000000" font-family="Arial" font-size="11" lengthAdjust="spacingAndGlyphs" textLength="149" x="102.5" y="428.312">DaemonSet (hostNetwork)</text><text fill="#000000" font-family="Arial" font-size="11" lengthAdjust="spacingAndGlyphs" textLength="157" x="102.5" y="453.1167">VPNv4/VPNv6 PE · RFC 9252</text><!--MD5=[1d844b934173efe2b2ab6bcffe659960]
entity op_am--><rect fill="#DAE8FC" height="94.4141" rx="4" ry="4" style="stroke: #000000; stroke-width: 1.5;" width="191" x="127.5" y="197.2969"/><text fill="#000000" font-family="Arial" font-size="11" font-weight="bold" lengthAdjust="spacingAndGlyphs" textLength="111" x="143.5" y="223.5073">galactic-operator</text><text fill="#000000" font-family="Arial" font-size="11" lengthAdjust="spacingAndGlyphs" textLength="133" x="143.5" y="248.312">DaemonSet (privileged)</text><text fill="#000000" font-family="Arial" font-size="11" lengthAdjust="spacingAndGlyphs" textLength="159" x="143.5" y="273.1167">VRF lifecycle · gRPC→GoBGP</text><!--MD5=[2e8ee261e2e2f5828b240ef8bb628dae]
entity cilium_am--><rect fill="#DAE8FC" height="94.4141" rx="4" ry="4" style="stroke: #000000; stroke-width: 1.5;" width="200" x="311" y="377.2969"/><text fill="#000000" font-family="Arial" font-size="11" font-weight="bold" lengthAdjust="spacingAndGlyphs" textLength="40" x="327" y="403.5073">Cilium</text><text fill="#000000" font-family="Arial" font-size="11" lengthAdjust="spacingAndGlyphs" textLength="89" x="327" y="428.312">CNI DaemonSet</text><text fill="#000000" font-family="Arial" font-size="11" lengthAdjust="spacingAndGlyphs" textLength="168" x="327" y="453.1167">veth/lxc lifecycle · eBPF policy</text><!--MD5=[47858aa9baa5a06dafb3393078de25ae]
entity gobgp_eu--><rect fill="#DAE8FC" height="94.4141" rx="4" ry="4" style="stroke: #000000; stroke-width: 1.5;" width="189" x="615.5" y="377.2969"/><text fill="#000000" font-family="Arial" font-size="11" font-weight="bold" lengthAdjust="spacingAndGlyphs" textLength="43" x="631.5" y="403.5073">GoBGP</text><text fill="#000000" font-family="Arial" font-size="11" lengthAdjust="spacingAndGlyphs" textLength="149" x="631.5" y="428.312">DaemonSet (hostNetwork)</text><text fill="#000000" font-family="Arial" font-size="11" lengthAdjust="spacingAndGlyphs" textLength="157" x="631.5" y="453.1167">VPNv4/VPNv6 PE · RFC 9252</text><!--MD5=[b2d9aae49801c2821c10f288c8ba4259]
entity op_eu--><rect fill="#DAE8FC" height="94.4141" rx="4" ry="4" style="stroke: #000000; stroke-width: 1.5;" width="191" x="656.5" y="197.2969"/><text fill="#000000" font-family="Arial" font-size="11" font-weight="bold" lengthAdjust="spacingAndGlyphs" textLength="111" x="672.5" y="223.5073">galactic-operator</text><text fill="#000000" font-family="Arial" font-size="11" lengthAdjust="spacingAndGlyphs" textLength="133" x="672.5" y="248.312">DaemonSet (privileged)</text><text fill="#000000" font-family="Arial" font-size="11" lengthAdjust="spacingAndGlyphs" textLength="159" x="672.5" y="273.1167">VRF lifecycle · gRPC→GoBGP</text><!--MD5=[3b70e906d63ef2712ccddcc21c23a7d7]
entity cilium_eu--><rect fill="#DAE8FC" height="94.4141" rx="4" ry="4" style="stroke: #000000; stroke-width: 1.5;" width="200" x="840" y="377.2969"/><text fill="#000000" font-family="Arial" font-size="11" font-weight="bold" lengthAdjust="spacingAndGlyphs" textLength="40" x="856" y="403.5073">Cilium</text><text fill="#000000" font-family="Arial" font-size="11" lengthAdjust="spacingAndGlyphs" textLength="89" x="856" y="428.312">CNI DaemonSet</text><text fill="#000000" font-family="Arial" font-size="11" lengthAdjust="spacingAndGlyphs" textLength="168" x="856" y="453.1167">veth/lxc lifecycle · eBPF policy</text><!--MD5=[a8c9807f689cba4e14c523e0a84802cf]
entity gobgp_ap--><rect fill="#DAE8FC" height="94.4141" rx="4" ry="4" style="stroke: #000000; stroke-width: 1.5;" width="189" x="1144.5" y="377.2969"/><text fill="#000000" font-family="Arial" font-size="11" font-weight="bold" lengthAdjust="spacingAndGlyphs" textLength="43" x="1160.5" y="403.5073">GoBGP</text><text fill="#000000" font-family="Arial" font-size="11" lengthAdjust="spacingAndGlyphs" textLength="149" x="1160.5" y="428.312">DaemonSet (hostNetwork)</text><text fill="#000000" font-family="Arial" font-size="11" lengthAdjust="spacingAndGlyphs" textLength="157" x="1160.5" y="453.1167">VPNv4/VPNv6 PE · RFC 9252</text><!--MD5=[9c0e641ded0f22f63c049a7e1256f5f3]
entity op_ap--><rect fill="#DAE8FC" height="94.4141" rx="4" ry="4" style="stroke: #000000; stroke-width: 1.5;" width="191" x="1185.5" y="197.2969"/><text fill="#000000" font-family="Arial" font-size="11" font-weight="bold" lengthAdjust="spacingAndGlyphs" textLength="111" x="1201.5" y="223.5073">galactic-operator</text><text fill="#000000" font-family="Arial" font-size="11" lengthAdjust="spacingAndGlyphs" textLength="133" x="1201.5" y="248.312">DaemonSet (privileged)</text><text fill="#000000" font-family="Arial" font-size="11" lengthAdjust="spacingAndGlyphs" textLength="159" x="1201.5" y="273.1167">VRF lifecycle · gRPC→GoBGP</text><!--MD5=[9bb79ff02c9a42ff51c02b6448effc4f]
entity cilium_ap--><rect fill="#DAE8FC" height="94.4141" rx="4" ry="4" style="stroke: #000000; stroke-width: 1.5;" width="200" x="1369" y="377.2969"/><text fill="#000000" font-family="Arial" font-size="11" font-weight="bold" lengthAdjust="spacingAndGlyphs" textLength="40" x="1385" y="403.5073">Cilium</text><text fill="#000000" font-family="Arial" font-size="11" lengthAdjust="spacingAndGlyphs" textLength="89" x="1385" y="428.312">CNI DaemonSet</text><text fill="#000000" font-family="Arial" font-size="11" lengthAdjust="spacingAndGlyphs" textLength="168" x="1385" y="453.1167">veth/lxc lifecycle · eBPF policy</text><!--MD5=[4bb76d21f1df0a54bc9db6e3d5f3268b]
link grr1 to grr2--><path d="M468,1073.6069 C468,1106.6069 468,1146.7669 468,1179.7869 " fill="none" id="grr1-grr2" style="stroke: #A80036; stroke-width: 1.0;"/><polygon fill="#A80036" points="468,1185.0269,472,1176.0269,468,1180.0269,464,1176.0269,468,1185.0269" style="stroke: #A80036; stroke-width: 1.0;"/><polygon fill="#A80036" points="468,1068.5469,464,1077.5469,468,1073.5469,472,1077.5469,468,1068.5469" style="stroke: #A80036; stroke-width: 1.0;"/><text fill="#000000" font-family="Arial" font-size="11" lengthAdjust="spacingAndGlyphs" textLength="84" x="475" y="1117.5073">iBGP full mesh</text><!--MD5=[5e49d561f7b3fc6b33787620054145be]
link rrA1 to grr1--><path d="M188.24,757.4269 C210.24,781.0069 240.7,812.7869 269,839.2969 C308.05,875.8769 353.46,914.5969 391.03,945.6869 " fill="none" id="rrA1-&gt;grr1" style="stroke: #A80036; stroke-width: 1.0;"/><polygon fill="#A80036" points="395.11,949.0469,390.718,940.2315,391.2549,945.8628,385.6236,946.3997,395.11,949.0469" style="stroke: #A80036; stroke-width: 1.0;"/><text fill="#000000" font-family="Arial" font-size="11" lengthAdjust="spacingAndGlyphs" textLength="27" x="276" y="830.5073">iBGP</text><!--MD5=[b9728117da51336d798d70dcf9193e2b]
link rrA1 to grr2--><path d="M189.87,757.6769 C209.26,775.4769 235.37,795.4969 263,805.2969 C281.12,811.7269 595.56,799.5469 609,813.2969 C614.33,818.7569 627.27,1009.4269 574,1126.2969 C565.07,1145.8869 551.68,1164.4869 537.39,1180.8769 " fill="none" id="rrA1-&gt;grr2" style="stroke: #A80036; stroke-width: 1.0;"/><polygon fill="#A80036" points="533.74,1184.9969,542.7012,1180.9106,537.0547,1181.2535,536.7118,1175.6071,533.74,1184.9969" style="stroke: #A80036; stroke-width: 1.0;"/><text fill="#000000" font-family="Arial" font-size="11" lengthAdjust="spacingAndGlyphs" textLength="27" x="621" y="1013.0073">iBGP</text><!--MD5=[5ee67a6d7085d19f8ed7762ae300ce41]
link rrA2 to grr1--><path d="M344.71,757.5369 C326.8,780.2269 310.37,810.9369 321,839.2969 C336.06,879.4769 365.53,916.3769 394.14,945.3369 " fill="none" id="rrA2-&gt;grr1" style="stroke: #A80036; stroke-width: 1.0;"/><polygon fill="#A80036" points="397.99,949.1869,394.4545,939.9945,394.4545,945.6513,388.7976,945.6513,397.99,949.1869" style="stroke: #A80036; stroke-width: 1.0;"/><text fill="#000000" font-family="Arial" font-size="11" lengthAdjust="spacingAndGlyphs" textLength="27" x="328" y="830.5073">iBGP</text><!--MD5=[fd81d004bcd5c2a07f693e993624e53a]
link rrA2 to grr2--><path d="M422.27,757.3269 C447.9,775.0269 481.61,795.0469 515,805.2969 C545.21,814.5669 629.51,797.6969 657,813.2969 C672.87,822.2969 674.65,829.8569 680,847.2969 C711.91,951.4069 711.91,988.1869 680,1092.2969 C663.56,1145.9269 613.31,1183.1469 565.86,1207.2769 " fill="none" id="rrA2-&gt;grr2" style="stroke: #A80036; stroke-width: 1.0;"/><polygon fill="#A80036" points="561.27,1209.5669,571.1081,1209.1071,565.7393,1207.3251,567.5213,1201.9563,561.27,1209.5669" style="stroke: #A80036; stroke-width: 1.0;"/><text fill="#000000" font-family="Arial" font-size="11" lengthAdjust="spacingAndGlyphs" textLength="27" x="710" y="1013.0073">iBGP</text><!--MD5=[224c3a33d20d4bafc1f86edb10cd91e1]
link rrE1 to grr1--><path d="M578.54,757.3369 C554.33,774.8069 522.6,794.6069 491,805.2969 C472.19,811.6569 415.4,798.6369 402,813.2969 C368.85,849.5569 390.5,903.1169 417.56,944.8569 " fill="none" id="rrE1-&gt;grr1" style="stroke: #A80036; stroke-width: 1.0;"/><polygon fill="#A80036" points="420.37,949.1169,418.7596,939.4006,417.6196,944.9413,412.0788,943.8013,420.37,949.1169" style="stroke: #A80036; stroke-width: 1.0;"/><text fill="#000000" font-family="Arial" font-size="11" lengthAdjust="spacingAndGlyphs" textLength="27" x="409" y="830.5073">iBGP</text><!--MD5=[1292374826d8a9ded2205c7b375f866b]
link rrE1 to grr2--><path d="M674.28,757.4269 C703.15,779.2369 736.09,810.3369 752,847.2969 C795.05,947.3169 805.4,997.3969 752,1092.2969 C713.6,1160.5269 632.18,1199.4469 566.32,1220.7069 " fill="none" id="rrE1-&gt;grr2" style="stroke: #A80036; stroke-width: 1.0;"/><polygon fill="#A80036" points="561.2,1222.3369,570.9893,1223.4185,565.9644,1220.8203,568.5627,1215.7954,561.2,1222.3369" style="stroke: #A80036; stroke-width: 1.0;"/><text fill="#000000" font-family="Arial" font-size="11" lengthAdjust="spacingAndGlyphs" textLength="27" x="795" y="1013.0073">iBGP</text><!--MD5=[0d224b19bb067ee9a9e4887ceedfbd79]
link rrE2 to grr1--><path d="M799.83,757.5669 C780.83,775.3369 755.21,795.3569 728,805.2969 C715.21,809.9669 492.84,803.8869 483,813.2969 C448.9,845.9169 447.48,900.6469 453.26,943.7569 " fill="none" id="rrE2-&gt;grr1" style="stroke: #A80036; stroke-width: 1.0;"/><polygon fill="#A80036" points="454,948.9569,456.7023,939.486,453.3009,944.006,448.7809,940.6046,454,948.9569" style="stroke: #A80036; stroke-width: 1.0;"/><text fill="#000000" font-family="Arial" font-size="11" lengthAdjust="spacingAndGlyphs" textLength="27" x="490" y="830.5073">iBGP</text><!--MD5=[c045695c24581199bfe7a27932ba5816]
link rrE2 to grr2--><path d="M843.9,757.4169 C865.81,826.7669 904.41,986.5369 837,1092.2969 C778.91,1183.4269 654.53,1219.7469 566.26,1234.2269 " fill="none" id="rrE2-&gt;grr2" style="stroke: #A80036; stroke-width: 1.0;"/><polygon fill="#A80036" points="561.29,1235.0169,570.8135,1237.5276,566.2258,1234.218,569.5353,1229.6303,561.29,1235.0169" style="stroke: #A80036; stroke-width: 1.0;"/><text fill="#000000" font-family="Arial" font-size="11" lengthAdjust="spacingAndGlyphs" textLength="27" x="881" y="1013.0073">iBGP</text><!--MD5=[d311ab81868cec897185742dd08b0812]
link rrP1 to grr1--><path d="M1020.82,757.3769 C996.65,774.6269 965.17,794.2069 934,805.2969 C788.05,857.2169 722.06,769.6869 588,847.2969 C549.39,869.6469 519.35,909.8869 498.98,944.4769 " fill="none" id="rrP1-&gt;grr1" style="stroke: #A80036; stroke-width: 1.0;"/><polygon fill="#A80036" points="496.29,949.0969,504.2693,943.3236,498.8014,944.7733,497.3516,939.3054,496.29,949.0969" style="stroke: #A80036; stroke-width: 1.0;"/><text fill="#000000" font-family="Arial" font-size="11" lengthAdjust="spacingAndGlyphs" textLength="27" x="907" y="830.5073">iBGP</text><!--MD5=[b85a4873c63aa63357fed22fbba9faa1]
link rrP1 to grr2--><path d="M1059.78,757.4169 C1049.29,828.5369 1015.84,994.1469 923,1092.2969 C829.33,1191.3369 669.35,1225.6569 566.2,1237.5369 " fill="none" id="rrP1-&gt;grr2" style="stroke: #A80036; stroke-width: 1.0;"/><polygon fill="#A80036" points="561.03,1238.1169,570.4204,1241.0866,565.9987,1237.5584,569.5269,1233.1367,561.03,1238.1169" style="stroke: #A80036; stroke-width: 1.0;"/><text fill="#000000" font-family="Arial" font-size="11" lengthAdjust="spacingAndGlyphs" textLength="27" x="1048" y="1013.0073">iBGP</text><!--MD5=[32e29245016df0e950640220b308d86c]
link rrP2 to grr1--><path d="M1240.34,757.5769 C1221.54,774.6669 1196.76,794.0369 1171,805.2969 C1079.54,845.2869 1048.44,830.6169 949,839.2969 C929.02,841.0369 605.84,838.1169 588,847.2969 C547.89,867.9469 517.62,908.8669 497.52,944.2069 " fill="none" id="rrP2-&gt;grr1" style="stroke: #A80036; stroke-width: 1.0;"/><polygon fill="#A80036" points="494.87,948.9369,502.7604,943.0427,497.3152,944.5756,495.7823,939.1304,494.87,948.9369" style="stroke: #A80036; stroke-width: 1.0;"/><text fill="#000000" font-family="Arial" font-size="11" lengthAdjust="spacingAndGlyphs" textLength="27" x="1157" y="830.5073">iBGP</text><!--MD5=[aad8c9408ee5b042ede70e36dc6f2fbc]
link rrP2 to grr2--><path d="M1267.13,757.3669 C1250.52,830.6269 1201.06,1003.6569 1090,1092.2969 C1009.6,1156.4669 720.24,1207.0469 566.16,1230.1469 " fill="none" id="rrP2-&gt;grr2" style="stroke: #A80036; stroke-width: 1.0;"/><polygon fill="#A80036" points="561.19,1230.8869,570.6845,1233.5049,566.1345,1230.1438,569.4956,1225.5937,561.19,1230.8869" style="stroke: #A80036; stroke-width: 1.0;"/><text fill="#000000" font-family="Arial" font-size="11" lengthAdjust="spacingAndGlyphs" textLength="27" x="1248" y="1013.0073">iBGP</text><!--MD5=[9513e68432af7651d43a59cd345d2164]
link gobgp_am to rrA1--><path d="M177.25,471.5469 C172.56,529.3569 164.62,627.3069 160.2,681.7769 " fill="none" id="gobgp_am-&gt;rrA1" style="stroke: #A80036; stroke-width: 1.0;"/><polygon fill="#A80036" points="159.79,686.9069,164.4969,678.2556,160.1899,681.9229,156.5226,677.6158,159.79,686.9069" style="stroke: #A80036; stroke-width: 1.0;"/><text fill="#000000" font-family="Arial" font-size="11" lengthAdjust="spacingAndGlyphs" textLength="27" x="178" y="568.5073">iBGP</text><!--MD5=[cf9f84a635bf48ef8659b77fba81c3a4]
link gobgp_am to rrA2--><path d="M211.78,471.5469 C250.41,529.5869 315.97,628.0969 352.13,682.4369 " fill="none" id="gobgp_am-&gt;rrA2" style="stroke: #A80036; stroke-width: 1.0;"/><polygon fill="#A80036" points="355.11,686.9069,353.4459,677.1996,352.3365,682.7466,346.7895,681.6372,355.11,686.9069" style="stroke: #A80036; stroke-width: 1.0;"/><text fill="#000000" font-family="Arial" font-size="11" lengthAdjust="spacingAndGlyphs" textLength="27" x="287" y="568.5073">iBGP</text><!--MD5=[698c54fc83e37ff1278f49e5af4e545b]
link gobgp_eu to rrE1--><path d="M673.89,471.3369 C658.1,494.0869 641.13,522.7469 632,551.2969 C618.18,594.5269 616.97,647.0169 618.23,682.1269 " fill="none" id="gobgp_eu-&gt;rrE1" style="stroke: #A80036; stroke-width: 1.0;"/><polygon fill="#A80036" points="618.43,687.1769,622.0671,678.0242,618.2302,682.1809,614.0735,678.3439,618.43,687.1769" style="stroke: #A80036; stroke-width: 1.0;"/><text fill="#000000" font-family="Arial" font-size="11" lengthAdjust="spacingAndGlyphs" textLength="27" x="639" y="568.5073">iBGP</text><!--MD5=[435dad5fc2061455bd18fe4cc2025cc9]
link gobgp_eu to rrE2--><path d="M729.06,471.5469 C752.94,529.4769 793.42,627.6969 815.85,682.1069 " fill="none" id="gobgp_eu-&gt;rrE2" style="stroke: #A80036; stroke-width: 1.0;"/><polygon fill="#A80036" points="817.83,686.9069,818.0867,677.0614,815.9191,682.2864,810.694,680.1188,817.83,686.9069" style="stroke: #A80036; stroke-width: 1.0;"/><text fill="#000000" font-family="Arial" font-size="11" lengthAdjust="spacingAndGlyphs" textLength="27" x="778" y="568.5073">iBGP</text><!--MD5=[eab93cc271978fe6e790ad5305b1031d]
link gobgp_ap to rrP1--><path d="M1211.66,471.5469 C1177.34,529.5869 1119.1,628.0969 1086.98,682.4369 " fill="none" id="gobgp_ap-&gt;rrP1" style="stroke: #A80036; stroke-width: 1.0;"/><polygon fill="#A80036" points="1084.33,686.9069,1092.3542,681.1961,1086.8751,682.6031,1085.4681,677.124,1084.33,686.9069" style="stroke: #A80036; stroke-width: 1.0;"/><text fill="#000000" font-family="Arial" font-size="11" lengthAdjust="spacingAndGlyphs" textLength="27" x="1168" y="568.5073">iBGP</text><!--MD5=[fd906bf00dfd53f63ddb752ca4887932]
link gobgp_ap to rrP2--><path d="M1244.47,471.5469 C1251.3,529.3569 1262.89,627.3069 1269.33,681.7769 " fill="none" id="gobgp_ap-&gt;rrP2" style="stroke: #A80036; stroke-width: 1.0;"/><polygon fill="#A80036" points="1269.93,686.9069,1272.8463,677.4997,1269.3433,681.9414,1264.9016,678.4384,1269.93,686.9069" style="stroke: #A80036; stroke-width: 1.0;"/><text fill="#000000" font-family="Arial" font-size="11" lengthAdjust="spacingAndGlyphs" textLength="27" x="1263" y="568.5073">iBGP</text><!--MD5=[7ff860d0414ef5010236ddc3d51183dc]
link op_am to gobgp_am--><path d="M212.07,291.5969 C206.24,316.3169 199.05,346.8069 193.05,372.2169 " fill="none" id="op_am-&gt;gobgp_am" style="stroke: #A80036; stroke-width: 1.0;"/><polygon fill="#A80036" points="191.87,377.2269,197.825,369.3823,193.0152,372.3598,190.0377,367.55,191.87,377.2269" style="stroke: #A80036; stroke-width: 1.0;"/><text fill="#000000" font-family="Arial" font-size="11" lengthAdjust="spacingAndGlyphs" textLength="29" x="212" y="338.5073">gRPC</text><!--MD5=[00522e50440741047ec184740720740c]
link op_am to cilium_am--><path d="M271.9,291.5969 C298.45,316.7369 331.28,347.8269 358.39,373.4769 " fill="none" id="op_am-&gt;cilium_am" style="stroke: #A80036; stroke-width: 1.0;"/><polygon fill="#A80036" points="362.34,377.2269,358.5455,368.1383,358.7057,373.7929,353.0511,373.9532,362.34,377.2269" style="stroke: #A80036; stroke-width: 1.0;"/><text fill="#000000" font-family="Arial" font-size="11" lengthAdjust="spacingAndGlyphs" textLength="38" x="336" y="338.5073">Netlink</text><!--MD5=[d64134a2db3b53fc07b8e65e22cc778e]
link op_eu to gobgp_eu--><path d="M741.07,291.5969 C735.24,316.3169 728.05,346.8069 722.05,372.2169 " fill="none" id="op_eu-&gt;gobgp_eu" style="stroke: #A80036; stroke-width: 1.0;"/><polygon fill="#A80036" points="720.87,377.2269,726.825,369.3823,722.0152,372.3598,719.0377,367.55,720.87,377.2269" style="stroke: #A80036; stroke-width: 1.0;"/><text fill="#000000" font-family="Arial" font-size="11" lengthAdjust="spacingAndGlyphs" textLength="29" x="740" y="338.5073">gRPC</text><!--MD5=[507660a4dca6060f82bbd54ac00492a7]
link op_eu to cilium_eu--><path d="M800.9,291.5969 C827.45,316.7369 860.28,347.8269 887.39,373.4769 " fill="none" id="op_eu-&gt;cilium_eu" style="stroke: #A80036; stroke-width: 1.0;"/><polygon fill="#A80036" points="891.34,377.2269,887.5455,368.1383,887.7057,373.7929,882.0511,373.9532,891.34,377.2269" style="stroke: #A80036; stroke-width: 1.0;"/><text fill="#000000" font-family="Arial" font-size="11" lengthAdjust="spacingAndGlyphs" textLength="38" x="864" y="338.5073">Netlink</text><!--MD5=[c12c4951f8e0b1507362182334814311]
link op_ap to gobgp_ap--><path d="M1270.07,291.5969 C1264.24,316.3169 1257.05,346.8069 1251.05,372.2169 " fill="none" id="op_ap-&gt;gobgp_ap" style="stroke: #A80036; stroke-width: 1.0;"/><polygon fill="#A80036" points="1249.87,377.2269,1255.825,369.3823,1251.0152,372.3598,1248.0377,367.55,1249.87,377.2269" style="stroke: #A80036; stroke-width: 1.0;"/><text fill="#000000" font-family="Arial" font-size="11" lengthAdjust="spacingAndGlyphs" textLength="29" x="1269" y="338.5073">gRPC</text><!--MD5=[b60c60a852009be130726b28a4193b59]
link op_ap to cilium_ap--><path d="M1329.9,291.5969 C1356.45,316.7369 1389.28,347.8269 1416.39,373.4769 " fill="none" id="op_ap-&gt;cilium_ap" style="stroke: #A80036; stroke-width: 1.0;"/><polygon fill="#A80036" points="1420.34,377.2269,1416.5455,368.1383,1416.7057,373.7929,1411.0511,373.9532,1420.34,377.2269" style="stroke: #A80036; stroke-width: 1.0;"/><text fill="#000000" font-family="Arial" font-size="11" lengthAdjust="spacingAndGlyphs" textLength="38" x="1393" y="338.5073">Netlink</text><!--MD5=[1528184ccbf4a25910609e8877f573a3]
@startuml bgp-full-architecture
skinparam defaultFontSize 11
skinparam defaultFontName Arial
skinparam titleFontSize 14
skinparam titleFontStyle bold
skinparam padding 6
skinparam shadowing false
skinparam roundCorner 8

title Galactic VPC — BGP control plane full architecture

rectangle "**Tier 0 — Global RRs**" as tier0 #f3e6ff {
  rectangle "**us-east-2 · New York City**" as nyc_site #f9f0ff {
    rectangle "**Global RR 1**\nFRR\niBGP cluster A\nreflects inter-region routes" as grr1 #e1d5e7
  }
  rectangle "**de-central-1 · Frankfurt**" as fra_site #f9f0ff {
    rectangle "**Global RR 2**\nFRR\niBGP cluster B\nreflects inter-region routes" as grr2 #e1d5e7
  }
}

rectangle "**Tier 1 — Regional RRs**" as tier1 #e6fff9 {
  rectangle "**Americas**" as am_region #f0fff8 {
    rectangle "**Americas RR — primary**\nFRR · Anchor: us-east-2" as rrA1 #ccffe6
    rectangle "**Americas RR — secondary**\nFRR · active/active pair" as rrA2 #ccffe6
  }
  rectangle "**EMEA**" as eu_region #f0fff8 {
    rectangle "**EMEA RR — primary**\nFRR · Anchor: de-central-1" as rrE1 #ccffe6
    rectangle "**EMEA RR — secondary**\nFRR · active/active pair" as rrE2 #ccffe6
  }
  rectangle "**Asia-Pacific**" as ap_region #f0fff8 {
    rectangle "**APAC RR — primary**\nFRR · Anchor: sg-central-1" as rrP1 #ccffe6
    rectangle "**APAC RR — secondary**\nFRR · active/active pair" as rrP2 #ccffe6
  }
}

rectangle "**Tier 2 — Worker nodes (representative PoPs)**" as tier2 #e8f4ff {
  rectangle "**us-east-1 · Ashburn**" as pop_am #eef6ff {
    rectangle "**K8s worker node**" as k8s_am #f5faff {
      rectangle "**GoBGP**\nDaemonSet (hostNetwork)\nVPNv4/VPNv6 PE · RFC 9252" as gobgp_am #dae8fc
      rectangle "**galactic-operator**\nDaemonSet (privileged)\nVRF lifecycle · gRPC→GoBGP" as op_am #dae8fc
      rectangle "**Cilium**\nCNI DaemonSet\nveth/lxc lifecycle · eBPF policy" as cilium_am #dae8fc
    }
  }
  rectangle "**gb-south-1 · London**" as pop_eu #eef6ff {
    rectangle "**K8s worker node**" as k8s_eu #f5faff {
      rectangle "**GoBGP**\nDaemonSet (hostNetwork)\nVPNv4/VPNv6 PE · RFC 9252" as gobgp_eu #dae8fc
      rectangle "**galactic-operator**\nDaemonSet (privileged)\nVRF lifecycle · gRPC→GoBGP" as op_eu #dae8fc
      rectangle "**Cilium**\nCNI DaemonSet\nveth/lxc lifecycle · eBPF policy" as cilium_eu #dae8fc
    }
  }
  rectangle "**sg-central-1 · Singapore**" as pop_ap #eef6ff {
    rectangle "**K8s worker node**" as k8s_ap #f5faff {
      rectangle "**GoBGP**\nDaemonSet (hostNetwork)\nVPNv4/VPNv6 PE · RFC 9252" as gobgp_ap #dae8fc
      rectangle "**galactic-operator**\nDaemonSet (privileged)\nVRF lifecycle · gRPC→GoBGP" as op_ap #dae8fc
      rectangle "**Cilium**\nCNI DaemonSet\nveth/lxc lifecycle · eBPF policy" as cilium_ap #dae8fc
    }
  }
}

grr1 <- -> grr2 : iBGP full mesh

rrA1 - -> grr1 : iBGP
rrA1 - -> grr2 : iBGP
rrA2 - -> grr1 : iBGP
rrA2 - -> grr2 : iBGP

rrE1 - -> grr1 : iBGP
rrE1 - -> grr2 : iBGP
rrE2 - -> grr1 : iBGP
rrE2 - -> grr2 : iBGP

rrP1 - -> grr1 : iBGP
rrP1 - -> grr2 : iBGP
rrP2 - -> grr1 : iBGP
rrP2 - -> grr2 : iBGP

gobgp_am - -> rrA1 : iBGP
gobgp_am - -> rrA2 : iBGP
gobgp_eu - -> rrE1 : iBGP
gobgp_eu - -> rrE2 : iBGP
gobgp_ap - -> rrP1 : iBGP
gobgp_ap - -> rrP2 : iBGP

op_am - -> gobgp_am : gRPC
op_am - -> cilium_am : Netlink
op_eu - -> gobgp_eu : gRPC
op_eu - -> cilium_eu : Netlink
op_ap - -> gobgp_ap : gRPC
op_ap - -> cilium_ap : Netlink

@enduml

PlantUML version 1.2020.02(Sun Mar 01 10:22:07 UTC 2020)
(GPL source distribution)
Java Runtime: OpenJDK Runtime Environment
JVM: OpenJDK 64-Bit Server VM
Java Version: 21.0.10+7-Ubuntu-124.04
Operating System: Linux
Default Encoding: UTF-8
Language: en
Country: US
--></g></svg>